<svg role="img" viewBox="0 0 24 24" xmlns="http://www.w3.org/2000/svg"><title>Salesforce</title><path d="M10.002 6.37a4.278 4.278 0 0 1 3.02-1.248c1.637 0 3.063.92 3.828 2.28a5.26 5.26 0 0 1 2.14-.452c2.9 0 5.25 2.362 5.25 5.28 0 2.913-2.35 5.278-5.25 5.278a5.2 5.2 0 0 1-1.076-.113 3.742 3.742 0 0 1-3.305 1.993 3.72 3.72 0 0 1-1.664-.39 4.553 4.553 0 0 1-4.208 2.81 4.556 4.556 0 0 1-4.267-2.969 4.08 4.08 0 0 1-.77.075C1.66 18.914 0 17.24 0 15.182c0-1.355.713-2.54 1.78-3.195a4.635 4.635 0 0 1-.397-1.882c0-2.567 2.077-4.647 4.637-4.647a4.62 4.62 0 0 1 3.982 2.912z"/></svg>
