<svg role="img" viewBox="0 0 24 24" xmlns="http://www.w3.org/2000/svg"><title>Walmart</title><path d="M12 1.5a1.25 1.25 0 0 1 1.25 1.25v4.5a1.25 1.25 0 0 1-2.5 0v-4.5A1.25 1.25 0 0 1 12 1.5zm0 15a1.25 1.25 0 0 1 1.25 1.25v4.5a1.25 1.25 0 0 1-2.5 0v-4.5A1.25 1.25 0 0 1 12 16.5zm-10.5-4.5a1.25 1.25 0 0 1 1.25-1.25h4.5a1.25 1.25 0 0 1 0 2.5h-4.5A1.25 1.25 0 0 1 1.5 12zm15 0a1.25 1.25 0 0 1 1.25-1.25h4.5a1.25 1.25 0 0 1 0 2.5h-4.5A1.25 1.25 0 0 1 16.5 12zM4.197 4.197a1.25 1.25 0 0 1 1.768 0l3.182 3.182a1.25 1.25 0 0 1-1.768 1.768L4.197 5.965a1.25 1.25 0 0 1 0-1.768zm11.434 11.434a1.25 1.25 0 0 1 1.768 0l3.182 3.182a1.25 1.25 0 0 1-1.768 1.768l-3.182-3.182a1.25 1.25 0 0 1 0-1.768zM4.197 19.803a1.25 1.25 0 0 1 0-1.768l3.182-3.182a1.25 1.25 0 0 1 1.768 1.768l-3.182 3.182a1.25 1.25 0 0 1-1.768 0zm11.434-11.434a1.25 1.25 0 0 1 0-1.768l3.182-3.182a1.25 1.25 0 0 1 1.768 1.768l-3.182 3.182a1.25 1.25 0 0 1-1.768 0z"/></svg>
