<svg role="img" viewBox="0 0 24 24" xmlns="http://www.w3.org/2000/svg"><title>DocuSign</title><path d="M22.265 0H1.735A1.735 1.735 0 0 0 0 1.735v20.53C0 23.224.776 24 1.735 24h13.979l8.286-8.286V1.735A1.735 1.735 0 0 0 22.265 0zM5.485 16.856V7.144h3.93c3.05 0 4.73 1.748 4.73 4.85 0 3.133-1.68 4.862-4.73 4.862zm3.93-7.785H7.49v5.862h1.924c1.978 0 2.724-1.172 2.724-2.938 0-1.812-.746-2.924-2.724-2.924zm6.3 6.53v2.04h-1.6V14.6c-.695 0-.86-.378-.86-.915v-4.98h1.6v5.056c0 .528.212.94.86.94zm5.64-3.556a.735.735 0 0 0-.735-.735h-3.5l.735-4.41h4.235v1.47H19.16l-.368 2.205h2.868a2.205 2.205 0 0 1 2.205 2.205v3.675h-1.47v-4.41z"/></svg>
