<svg role="img" viewBox="0 0 24 24" xmlns="http://www.w3.org/2000/svg"><title>Monday.com</title><path d="M2.65 15.878C1.185 15.878 0 14.693 0 13.228c0-.81.384-1.54.979-2.01L9.041 5.29c.545-.432 1.236-.692 1.989-.692.962 0 1.82.425 2.408 1.098l.051.063.051-.063a3.136 3.136 0 0 1 2.408-1.098c.753 0 1.444.26 1.989.692l8.062 5.928c.595.47.98 1.2.98 2.01 0 1.465-1.185 2.65-2.65 2.65-.668 0-1.278-.247-1.742-.651l-7.64-5.614-7.638 5.614a2.641 2.641 0 0 1-1.661.601zm10.04 0c-.668 0-1.278-.247-1.741-.651l-7.64-5.614c.025-.018 8.062 5.928 8.062 5.928s8.037-5.946 8.062-5.928l-7.638 5.614a2.647 2.647 0 0 1-1.105.651z"/></svg>
