<svg role="img" viewBox="0 0 24 24" xmlns="http://www.w3.org/2000/svg"><title>Twilio</title><path d="M12 0C5.373 0 0 5.372 0 12s5.373 12 12 12 12-5.372 12-12S18.627 0 12 0zm0 20.386c-4.628 0-8.386-3.758-8.386-8.386S7.372 3.614 12 3.614s8.386 3.758 8.386 8.386-3.758 8.386-8.386 8.386zm4.67-10.617a1.782 1.782 0 1 1-3.563.001 1.782 1.782 0 0 1 3.563-.001zm0 4.463a1.782 1.782 0 1 1-3.563.001 1.782 1.782 0 0 1 3.563-.001zm-4.463-4.463a1.782 1.782 0 1 1-3.563.001 1.782 1.782 0 0 1 3.563-.001zm0 4.463a1.782 1.782 0 1 1-3.563.001 1.782 1.782 0 0 1 3.563-.001z"/></svg>
