<svg role="img" viewBox="0 0 24 24" xmlns="http://www.w3.org/2000/svg"><title>Amazon DynamoDB</title><path fill="#4053D6" d="M4.5 6.75v10.5c0 1.24 3.36 2.25 7.5 2.25s7.5-1.01 7.5-2.25V6.75C19.5 5.51 16.14 4.5 12 4.5S4.5 5.51 4.5 6.75zm15 0c0 .62-2.52 1.5-7.5 1.5S4.5 7.37 4.5 6.75 7.02 5.25 12 5.25s7.5 1.12 7.5 1.5zM4.5 9.38c2.33.98 6.02 1.5 7.5 1.5s5.17-.52 7.5-1.5v3.37c0 .62-2.52 1.5-7.5 1.5s-7.5-.88-7.5-1.5V9.38zm0 5.25c2.33.98 6.02 1.5 7.5 1.5s5.17-.52 7.5-1.5v3.37c0 .62-2.52 1.5-7.5 1.5s-7.5-.88-7.5-1.5v-3.37z"/></svg>
