<svg xmlns="http://www.w3.org/2000/svg" viewBox="0 0 64 64" fill="none">
  <path d="M44.52 40.42c.18-.6.1-1.16-.22-1.56-.3-.36-.76-.56-1.3-.6l-21.3-.28c-.1 0-.18-.04-.22-.12-.04-.08-.04-.16 0-.24.08-.2.26-.34.48-.36l21.5-.28c2.12-.1 4.4-1.82 5.18-3.88l.98-2.6c.04-.12.06-.24.02-.36C48.24 24.02 42.58 19 35.7 19c-6.16 0-11.4 3.98-13.28 9.5-.94-.72-2.12-1.14-3.4-1.06-2.38.16-4.28 2.1-4.44 4.48-.04.58.02 1.14.18 1.66C10.68 33.78 7.5 37.08 7.5 41.06c0 .34.02.68.06 1.02.02.14.14.24.28.24h36.06c.22 0 .44-.14.52-.36l.1-.28z" fill="#F6821F"/>
  <path d="M50.48 33.82c-.22 0-.44.02-.66.04-.08.02-.16.08-.18.16l-.7 2.44c-.18.6-.1 1.16.22 1.56.3.36.76.56 1.3.6l4.48.28c.1 0 .18.04.22.12.04.08.04.16 0 .24-.08.2-.26.34-.48.36l-4.68.28c-2.14.1-4.42 1.82-5.2 3.88l-.26.72c-.06.14.04.28.2.28h12.84c.12 0 .24-.08.26-.2.28-1.1.44-2.26.44-3.46 0-3.98-3.24-7.2-7.22-7.2h-.58z" fill="#FBAD41"/>
</svg>
